#N canvas 112 49 640 730 10;
#X obj 26 87 f 0;
#X obj 55 87 + 1;
#X floatatom 26 110 5 0 0 0 - - -, f 5;
#X obj 41 15 tgl 15 0 empty empty empty 17 7 0 10 -262144 -1 -1 0 1
;
#X obj 40 269 readsf~;
#X obj 41 300 dac~;
#X msg 141 270 open data/hh.wav \, start;
#X obj 144 298 readsf~;
#X obj 145 326 dac~;
#X obj 24 371 key;
#X floatatom 23 410 5 0 0 0 - - -, f 5;
#X obj 39 390 key;
#X obj 39 421 sel 97;
#X obj 39 442 bng 15 250 50 0 empty empty empty 17 7 0 10 -262144 -1
-1;
#X obj 40 496 readsf~;
#X obj 39 523 dac~;
#X msg 25 467 open data/membraneSynth.wav \, start;
#X obj 95 411 key;
#X obj 98 486 bng 15 250 50 0 empty empty empty 17 7 0 10 -262144 -1
-1;
#X obj 99 540 readsf~;
#X obj 98 567 dac~;
#X obj 95 442 sel 115;
#X msg 98 510 open data/amOscillator.wav \, start;
#X obj 164 429 key;
#X obj 167 504 bng 15 250 50 0 empty empty empty 17 7 0 10 -262144
-1 -1;
#X obj 168 558 readsf~;
#X obj 167 585 dac~;
#X msg 167 528 open data/amSynth.wav \, start;
#X obj 164 460 sel 100;
#X obj 222 445 key;
#X obj 225 520 bng 15 250 50 0 empty empty empty 17 7 0 10 -262144
-1 -1;
#X obj 226 574 readsf~;
#X obj 225 601 dac~;
#X obj 222 476 sel 102;
#X msg 225 544 open data/bufferSource.wav \, start;
#X obj 280 458 key;
#X obj 283 533 bng 15 250 50 0 empty empty empty 17 7 0 10 -262144
-1 -1;
#X obj 284 587 readsf~;
#X obj 283 614 dac~;
#X msg 283 557 open data/fatOscillator.wav \, start;
#X obj 280 489 sel 103;
#X obj 333 466 key;
#X obj 336 541 bng 15 250 50 0 empty empty empty 17 7 0 10 -262144
-1 -1;
#X obj 337 595 readsf~;
#X obj 336 622 dac~;
#X obj 333 497 sel 104;
#X msg 336 565 open data/hh.wav \, start;
#X obj 389 477 key;
#X obj 392 552 bng 15 250 50 0 empty empty empty 17 7 0 10 -262144
-1 -1;
#X obj 393 606 readsf~;
#X obj 392 633 dac~;
#X obj 389 508 sel 106;
#X msg 392 576 open data/kick.wav \, start;
#X obj 83 87 % 32;
#X obj 26 65 metro 140;
#X obj 151 209 sel 31;
#X obj 345 237 unpackOSC;
#X obj 302 268 print;
#X obj 37 208 sel 0 12 14 15 17;
#X obj 508 110 packOSC;
#X msg 571 139 disconnect;
#X obj 508 155 udpsend;
#X msg 508 87 send /event \$1;
#X obj 508 133 spigot;
#X obj 345 211 udpreceive 8000;
#X obj 345 266 route /test;
#X obj 437 494 key;
#X obj 440 569 bng 15 250 50 0 empty empty empty 17 7 0 10 -262144
-1 -1;
#X obj 441 623 readsf~;
#X obj 440 650 dac~;
#X obj 437 525 sel 107;
#X msg 426 594 open data/metalSynth.wav \, start;
#X obj 44 565 key;
#X obj 47 640 bng 15 250 50 0 empty empty empty 17 7 0 10 -262144 -1
-1;
#X obj 48 694 readsf~;
#X obj 47 721 dac~;
#X obj 44 596 sel 108;
#X msg 34 665 open data/monoSynth.wav \, start;
#X obj 70 579 key;
#X obj 73 654 bng 15 250 50 0 empty empty empty 17 7 0 10 -262144 -1
-1;
#X obj 74 708 readsf~;
#X obj 73 735 dac~;
#X obj 70 610 sel 122;
#X msg 60 679 open data/noise.wav \, start;
#X obj 99 594 key;
#X obj 102 669 bng 15 250 50 0 empty empty empty 17 7 0 10 -262144
-1 -1;
#X obj 103 723 readsf~;
#X obj 102 750 dac~;
#X msg 89 694 open data/monoSynth.wav \, start;
#X obj 99 625 sel 120;
#X obj 344 339 readsf~;
#X obj 343 391 dac~;
#X msg 502 51 1;
#X msg 571 116 connect localhost 9000;
#X msg 344 316 open data/windowsXP/Start.wav \, start;
#X obj 411 227 vsl 15 128 0 127 0 0 empty empty empty 0 -9 0 10 -262144
-1 -1 4000 1;
#X obj 343 361 *~;
#X msg 37 244 open data/windowsXP/CriticalStop.wav \, start;
#X obj 101 119 % 4;
#X floatatom 110 146 5 0 0 0 - - -, f 5;
#X obj 175 133 sel 0;
#X msg 540 50 2;
#X obj 125 56 f 0;
#X obj 154 56 + 1;
#X floatatom 125 79 5 0 0 0 - - -, f 5;
#X obj 182 56 % 32;
#X obj 125 34 metro 140;
#X obj 122 8 tgl 15 0 empty empty empty 17 7 0 10 -262144 -1 -1 0 1
;
#X obj 499 336 readsf~;
#X obj 498 369 dac~;
#X obj 345 291 sel 0 1 2 3 4;
#X msg 495 287 open data/windowsXP/Startup.wav \, start;
#X obj 387 437 readsf~;
#X msg 385 388 open data/windowsXP/Balloon.wav \, start;
#X obj 513 345 vsl 15 128 0 127 0 0 empty empty empty 0 -9 0 10 -262144
-1 -1 1800 1;
#X obj 388 456 *~;
#X obj 358 485 dac~;
#X connect 0 0 1 0;
#X connect 0 0 2 0;
#X connect 1 0 53 0;
#X connect 2 0 58 0;
#X connect 2 0 55 0;
#X connect 3 0 54 0;
#X connect 4 0 5 0;
#X connect 4 0 5 1;
#X connect 6 0 7 0;
#X connect 7 0 8 0;
#X connect 7 0 8 1;
#X connect 9 0 10 0;
#X connect 11 0 12 0;
#X connect 12 0 13 0;
#X connect 13 0 16 0;
#X connect 14 0 15 0;
#X connect 14 0 15 1;
#X connect 16 0 14 0;
#X connect 17 0 21 0;
#X connect 18 0 22 0;
#X connect 19 0 20 0;
#X connect 19 0 20 1;
#X connect 21 0 18 0;
#X connect 22 0 19 0;
#X connect 23 0 28 0;
#X connect 24 0 27 0;
#X connect 25 0 26 0;
#X connect 25 0 26 1;
#X connect 27 0 25 0;
#X connect 28 0 24 0;
#X connect 29 0 33 0;
#X connect 30 0 34 0;
#X connect 31 0 32 0;
#X connect 31 0 32 1;
#X connect 33 0 30 0;
#X connect 34 0 31 0;
#X connect 35 0 40 0;
#X connect 36 0 39 0;
#X connect 37 0 38 0;
#X connect 37 0 38 1;
#X connect 39 0 37 0;
#X connect 40 0 36 0;
#X connect 41 0 45 0;
#X connect 42 0 46 0;
#X connect 43 0 44 0;
#X connect 43 0 44 1;
#X connect 45 0 42 0;
#X connect 46 0 43 0;
#X connect 47 0 51 0;
#X connect 48 0 52 0;
#X connect 49 0 50 0;
#X connect 49 0 50 1;
#X connect 51 0 48 0;
#X connect 52 0 49 0;
#X connect 53 0 0 1;
#X connect 54 0 0 0;
#X connect 55 0 6 0;
#X connect 56 0 57 0;
#X connect 56 0 65 0;
#X connect 58 0 97 0;
#X connect 58 0 92 0;
#X connect 58 1 97 0;
#X connect 58 1 92 0;
#X connect 58 2 97 0;
#X connect 58 2 92 0;
#X connect 58 3 97 0;
#X connect 58 4 97 0;
#X connect 58 4 92 0;
#X connect 59 0 63 0;
#X connect 60 0 61 0;
#X connect 62 0 59 0;
#X connect 63 0 61 0;
#X connect 64 0 56 0;
#X connect 65 0 110 0;
#X connect 66 0 70 0;
#X connect 67 0 71 0;
#X connect 68 0 69 0;
#X connect 68 0 69 1;
#X connect 70 0 67 0;
#X connect 71 0 68 0;
#X connect 72 0 76 0;
#X connect 73 0 77 0;
#X connect 74 0 75 0;
#X connect 74 0 75 1;
#X connect 76 0 73 0;
#X connect 77 0 74 0;
#X connect 78 0 82 0;
#X connect 79 0 83 0;
#X connect 80 0 81 0;
#X connect 80 0 81 1;
#X connect 82 0 79 0;
#X connect 83 0 80 0;
#X connect 84 0 89 0;
#X connect 85 0 88 0;
#X connect 86 0 87 0;
#X connect 86 0 87 1;
#X connect 88 0 86 0;
#X connect 89 0 85 0;
#X connect 90 0 96 0;
#X connect 92 0 62 0;
#X connect 93 0 61 0;
#X connect 94 0 90 0;
#X connect 95 0 96 1;
#X connect 96 0 91 0;
#X connect 96 0 91 1;
#X connect 97 0 4 0;
#X connect 98 0 99 0;
#X connect 99 0 100 0;
#X connect 100 0 52 0;
#X connect 100 0 101 0;
#X connect 101 0 62 0;
#X connect 102 0 103 0;
#X connect 102 0 104 0;
#X connect 103 0 105 0;
#X connect 104 0 98 0;
#X connect 105 0 102 1;
#X connect 106 0 102 0;
#X connect 107 0 106 0;
#X connect 108 0 109 0;
#X connect 108 0 109 1;
#X connect 110 0 3 0;
#X connect 110 1 94 0;
#X connect 110 2 107 0;
#X connect 110 3 111 0;
#X connect 110 4 113 0;
#X connect 111 0 108 0;
#X connect 112 0 115 0;
#X connect 113 0 112 0;
#X connect 114 0 115 1;
#X connect 115 0 116 0;
#X connect 115 0 116 1;
